<?xml version="1.0" encoding="UTF-8" standalone="no"?>
<!DOCTYPE svg PUBLIC "-//W3C//DTD SVG 1.1//EN" "http://www.w3.org/Graphics/SVG/1.1/DTD/svg11.dtd">
<svg width="100%" height="100%" viewBox="0 0 361 421" version="1.1" xmlns="http://www.w3.org/2000/svg" xmlns:xlink="http://www.w3.org/1999/xlink" xml:space="preserve" xmlns:serif="http://www.serif.com/" style="fill-rule:evenodd;clip-rule:evenodd;stroke-linejoin:round;stroke-miterlimit:2;">
    <g transform="matrix(1,0,0,1,-12268.28816,-4185.38672)">
        <g transform="matrix(1,0,0,1,10878.883531,2604.096295)">
            <g transform="matrix(0.709906,0,0,0.709906,504.686692,1008.636322)">
                <g transform="matrix(1.457635,0,0,1.604367,-17045.822232,-4590.654332)">
                    <path d="M12835.172,3476.288C12835.186,3476.973 12834.897,3477.634 12834.369,3478.123C12833.841,3478.612 12833.118,3478.887 12832.365,3478.887C12803.788,3478.891 12569.246,3478.891 12569.246,3478.891C12569.246,3415.516 12628.783,3364.141 12702.226,3364.141C12774.66,3364.141 12833.568,3414.115 12835.172,3476.288Z" style="fill:white;"/>
                </g>
                <g transform="matrix(1,0,0,0.488001,-11118.326492,-590.395521)">
                    <path d="M12368.51,4077.395C12367.466,4077.395 12366.465,4076.546 12365.726,4075.033C12364.988,4073.52 12364.573,4071.468 12364.573,4069.329C12364.573,4042.253 12364.573,3955.315 12364.573,3937.492C12364.573,3936.64 12364.739,3935.824 12365.032,3935.221C12365.326,3934.619 12365.725,3934.281 12366.14,3934.281C12392.515,3934.281 12743.42,3934.281 12778.696,3934.281C12779.452,3934.281 12780.178,3934.897 12780.713,3935.994C12781.249,3937.09 12781.549,3938.578 12781.549,3940.129C12781.549,3962.93 12781.549,4045.824 12781.549,4070.451C12781.549,4074.286 12780.032,4077.395 12778.16,4077.395C12740.919,4077.395 12408.527,4077.395 12368.51,4077.395Z" style="fill:white;"/>
                </g>
                <g transform="matrix(0.535081,0,0,0.870781,-5369.800162,-2619.235723)">
                    <path d="M12781.549,3934.281L12781.549,4077.395L12364.573,4077.395C12364.573,4077.395 12364.573,4006.773 12364.573,3964.749C12364.574,3947.922 12386.773,3934.281 12414.157,3934.281C12524.672,3934.281 12781.549,3934.281 12781.549,3934.281Z" style="fill:white;"/>
                </g>
                <g transform="matrix(0.717553,-0.949586,1.45679,1.074581,-13357.409871,8845.467736)">
                    <path d="M12407.718,3936.318C12407.282,3935.934 12407.219,3935.417 12407.553,3934.986C12407.887,3934.554 12408.563,3934.281 12409.296,3934.281C12449.106,3934.281 12781.549,3934.281 12781.549,3934.281C12781.549,3934.281 12781.549,3935.414 12781.549,3937.479C12781.549,3974.438 12759.05,4010.03 12719.07,4036.316C12679.09,4062.602 12624.956,4077.395 12568.744,4077.395C12781.549,4077.395 12589.996,4077.395 12569.191,4077.395C12568.041,4077.395 12566.964,4077.041 12566.281,4076.437C12553.232,4064.906 12426.443,3952.866 12407.718,3936.318Z" style="fill:white;"/>
                </g>
                <g transform="matrix(1,0,0,0.969482,-10852.123821,-2498.584105)">
                    <path d="M12383.328,3516.852C12383.328,3516.852 12230.832,3717.63 12187.303,3774.942C12180.06,3784.478 12168.968,3790.049 12157.223,3790.049C12142.294,3790.049 12121.841,3790.049 12109.396,3790.049C12103.307,3790.049 12098.371,3784.957 12098.371,3778.676L12098.371,3516.852L12383.328,3516.852Z" style="fill:white;"/>
                </g>
                <g transform="matrix(0.857778,0,0,0.857778,-9017.592292,-1907.104915)">
                    <circle cx="12046.487" cy="3329.454" r="30.531"/>
                </g>
            </g>
        </g>
    </g>
</svg>
